#!OML:ASF H:\Pregnant\Project 1\Capture day 1\Session 1\femalepreg.ASF
:FULLY-SPECIFIED
:DEGREES
769
root -5.78475 15.3023 42.002 -160.025 -2.62467 182.845
lowerback -14.2145 -0.349093 -13.1361
upperback -2.0704 1.22131 -2.21774
thorax 5.49994 0.159739 5.23317
lowerneck -13.3595 4.94716 3.94374
upperneck 39.672 -0.864842 5.179
head 16.6657 -0.622262 0.977568
rclavicle 1.59028e-015 1.59028e-014
rhumerus -34.6513 2.12536 -82.2307
rradius 32.4728
rwrist 0.696179
rhand -16.581 -13.1173
rfingers 7.12502
rthumb 9.63965 -42.8767
lclavicle 1.59028e-015 1.59028e-014
lhumerus -32.2271 -9.49639 78.6699
lradius 40.9816
lwrist 42.3265
lhand -29.7278 -6.17869
lfingers 7.12502
lthumb -3.05457 23.7792
rfemur -75.8138 13.6524 10.4349
rtibia 32.8891
rfoot -12.2549 -17.3755
rtoes -11.8432
lfemur -33.1237 -12.519 -20.6924
ltibia 22.4511
lfoot -7.08718 0.00226088
ltoes 3.84049
770
root -5.77808 15.2941 41.995 -160.191 -2.85734 182.888
lowerback -14.2405 -0.411834 -13.1298
upperback -2.02588 1.15065 -2.17611
thorax 5.57595 0.121569 5.2626
lowerneck -13.3093 4.96077 3.92807
upperneck 39.7694 -0.950212 5.31296
head 16.7112 -0.656238 1.02257
rclavicle -7.55382e-015 1.59028e-015
rhumerus -34.6549 1.97132 -82.165
rradius 32.3984
rwrist 0.628771
rhand -16.6163 -13.1757
rfingers 7.12502
rthumb 9.6056 -42.9367
lclavicle -7.55382e-015 1.59028e-015
lhumerus -32.2929 -9.54927 78.738
lradius 40.9361
lwrist 42.5537
lhand -29.6441 -6.13114
lfingers 7.12502
lthumb -2.97373 23.8279
rfemur -75.4523 13.3091 11.1325
rtibia 33.8506
rfoot -12.0964 -16.4822
rtoes -11.7848
lfemur -33.0936 -12.6238 -20.6315
ltibia 22.7641
lfoot -7.29595 -0.032218
ltoes 3.57861
771
root -5.77157 15.2822 41.9855 -160.359 -3.08433 182.928
lowerback -14.2758 -0.47018 -13.1212
upperback -1.99226 1.08451 -2.14148
thorax 5.64447 0.0858699 5.28394
lowerneck -13.2547 4.97257 3.9052
upperneck 39.8697 -1.04382 5.45897
head 16.7578 -0.694122 1.07271
rclavicle 7.95139e-015 -3.49861e-014
rhumerus -34.7033 1.83026 -82.1129
rradius 32.3779
rwrist 0.523953
rhand -16.6608 -13.2253
rfingers 7.12502
rthumb 9.56263 -42.9883
lclavicle 7.95139e-015 -3.49861e-014
lhumerus -32.3806 -9.64609 78.8032
lradius 40.8785
lwrist 42.7645
lhand -29.538 -6.08232
lfingers 7.12502
lthumb -2.8713 23.8781
rfemur -75.0714 13.0086 11.7455
rtibia 34.8483
rfoot -11.965 -15.7285
rtoes -11.6947
lfemur -33.0954 -12.7272 -20.584
ltibia 23.1715
lfoot -7.56844 -0.0506388
ltoes 3.28453
772
root -5.76548 15.2703 41.9752 -160.525 -3.29151 182.966
lowerback -14.3298 -0.528657 -13.111
upperback -1.96326 1.01972 -2.10515
thorax 5.71813 0.0504057 5.30654
lowerneck -13.2165 4.98932 3.86047
upperneck 39.9781 -1.12624 5.60892
head 16.8127 -0.730012 1.13101
rclavicle 1.55052e-014 -5.08889e-014
rhumerus -34.7738 1.7333 -82.0694
rradius 32.4071
rwrist 0.383349
rhand -16.7103 -13.2766
rfingers 7.12502
rthumb 9.51488 -43.0418
lclavicle 1.55052e-014 -5.08889e-014
lhumerus -32.4781 -9.75667 78.8678
lradius 40.8087
lwrist 42.945
lhand -29.4307 -6.01813
lfingers 7.12502
lthumb -2.76764 23.9437
rfemur -74.6652 12.7286 12.339
rtibia 35.8877
rfoot -11.8395 -15.0588
rtoes -11.6186
lfemur -33.1529 -12.8273 -20.5405
ltibia 23.6501
lfoot -7.86374 -0.0629369
ltoes 3.19957
773
root -5.75941 15.2568 41.9641 -160.681 -3.48365 182.997
lowerback -14.4042 -0.576531 -13.1002
upperback -1.9496 0.968626 -2.08317
thorax 5.78383 0.0216503 5.31579
lowerneck -13.1427 4.98676 3.80892
upperneck 40.0779 -1.24325 5.76878
head 16.8554 -0.78242 1.188
rclavicle -5.96354e-015 -1.27222e-013
rhumerus -34.893 1.62685 -82.0393
rradius 32.4829
rwrist 0.231006
rhand -16.7572 -13.3255
rfingers 7.12502
rthumb 9.46964 -43.0927
lclavicle -5.96354e-015 -1.27222e-013
lhumerus -32.5961 -9.93215 78.9264
lradius 40.7336
lwrist 43.0859
lhand -29.3257 -5.92176
lfingers 7.12502
lthumb -2.66624 24.0413
rfemur -74.2535 12.4541 12.9208
rtibia 36.9796
rfoot -11.6894 -14.4646
rtoes -11.584
lfemur -33.2395 -12.9231 -20.505
ltibia 24.168
lfoot -8.18019 -0.0693038
ltoes 3.18327
774
root -5.75301 15.2428 41.9519 -160.845 -3.67505 183.016
lowerback -14.4845 -0.619443 -13.1004
upperback -1.94014 0.925504 -2.07132
thorax 5.84659 -0.00363316 5.3215
lowerneck -13.0436 4.96866 3.74657
upperneck 40.1698 -1.38636 5.93826
head 16.8887 -0.847735 1.24608
rclavicle -8.74653e-015 2.38542e-014
rhumerus -35.0514 1.51939 -82.0198
rradius 32.5992
rwrist 0.0696459
rhand -16.7987 -13.3637
rfingers 7.12502
rthumb 9.42956 -43.1327
lclavicle -8.74653e-015 2.38542e-014
lhumerus -32.7256 -10.1598 78.9791
lradius 40.6501
lwrist 43.1832
lhand -29.2199 -5.82473
lfingers 7.12502
lthumb -2.56412 24.1396
rfemur -73.8146 12.1932 13.4681
rtibia 38.1308
rfoot -11.5271 -13.9661
rtoes -11.4864
lfemur -33.3146 -13.02 -20.4854
ltibia 24.6944
lfoot -8.50966 -0.0806832
ltoes 3.23202
775
root -5.74562 15.2281 41.9394 -161.001 -3.88186 183.015
lowerback -14.575 -0.663529 -13.1261
upperback -1.93939 0.884046 -2.07071
thorax 5.90467 -0.0289189 5.32942
lowerneck -12.9158 4.93326 3.67956
upperneck 40.249 -1.55783 6.11532
head 16.9095 -0.926081 1.30278
rclavicle 0 -4.92986e-014
rhumerus -35.2473 1.4123 -82.0139
rradius 32.7486
rwrist -0.103458
rhand -16.8377 -13.391
rfingers 7.12502
rthumb 9.39192 -43.1618
lclavicle 0 -4.92986e-014
lhumerus -32.8616 -10.4382 79.0243
lradius 40.5589
lwrist 43.2251
lhand -29.1189 -5.72402
lfingers 7.12502
lthumb -2.46655 24.2415
rfemur -73.3739 11.9466 13.9494
rtibia 39.3395
rfoot -11.3394 -13.5872
rtoes -11.3275
lfemur -33.3937 -13.12 -20.4825
ltibia 25.2085
lfoot -8.83023 -0.115423
ltoes 3.31739
776
root -5.73742 15.2131 41.927 -161.151 -4.09934 182.992
lowerback -14.6766 -0.703645 -13.1736
upperback -1.94262 0.851662 -2.08565
thorax 5.96256 -0.0508837 5.33421
lowerneck -12.7753 4.88478 3.61427
upperneck 40.3155 -1.75147 6.30094
head 16.9218 -1.01257 1.359
rclavicle -2.38542e-015 1.1609e-013
rhumerus -35.4734 1.29651 -82.0225
rradius 32.9295
rwrist -0.290925
rhand -16.867 -13.417
rfingers 7.12502
rthumb 9.36364 -43.1891
lclavicle -2.38542e-015 1.1609e-013
lhumerus -32.9897 -10.7664 79.0589
lradius 40.4534
lwrist 43.2101
lhand -29.0153 -5.63142
lfingers 7.12502
lthumb -2.36652 24.3352
rfemur -72.9291 11.7137 14.3707
rtibia 40.6003
rfoot -11.1483 -13.2976
rtoes -11.1155
lfemur -33.47 -13.2238 -20.4975
ltibia 25.7024
lfoot -9.13422 -0.170705
ltoes 3.41791
777
root -5.72869 15.1978 41.9148 -161.297 -4.32308 182.945
lowerback -14.7858 -0.742895 -13.251
upperback -1.94684 0.825614 -2.10923
thorax 6.02184 -0.0710381 5.34732
lowerneck -12.6388 4.8345 3.5471
upperneck 40.3726 -1.94365 6.48942
head 16.9308 -1.09738 1.41752
rclavicle -3.97569e-015 -6.36111e-014
rhumerus -35.7203 1.19395 -82.0392
rradius 33.1307
rwrist -0.494724
rhand -16.8915 -13.426
rfingers 7.12502
rthumb 9.33999 -43.1991
lclavicle -3.97569e-015 -6.36111e-014
lhumerus -33.1086 -11.1141 79.0869
lradius 40.3346
lwrist 43.1336
lhand -28.9038 -5.55315
lfingers 7.12502
lthumb -2.25884 24.4146
rfemur -72.4791 11.4921 14.7353
rtibia 41.9106
rfoot -10.9672 -13.0742
rtoes -10.9271
lfemur -33.5402 -13.3328 -20.5353
ltibia 26.1765
lfoot -9.42252 -0.240498
ltoes 3.51861
778
root -5.7198 15.1813 41.9032 -161.429 -4.54286 182.877
lowerback -14.9114 -0.782 -13.3543
upperback -1.94853 0.806555 -2.13673
thorax 6.09117 -0.0894961 5.37189
lowerneck -12.5287 4.78992 3.47496
upperneck 40.423 -2.11547 6.67296
head 16.9424 -1.17236 1.47935
rclavicle 5.96354e-015 2.70347e-014
rhumerus -35.9665 1.12125 -82.0599
rradius 33.3452
rwrist -0.722545
rhand -16.9004 -13.4475
rfingers 7.12502
rthumb 9.33146 -43.221
lclavicle 5.96354e-015 2.70347e-014
lhumerus -33.2101 -11.4616 79.1108
lradius 40.2086
lwrist 42.9974
lhand -28.7954 -5.48592
lfingers 7.12502
lthumb -2.15414 24.4829
rfemur -72.0396 11.2704 15.0665
rtibia 43.2707
rfoot -10.789 -12.8794
rtoes -10.7825
lfemur -33.6231 -13.4436 -20.5932
ltibia 26.6439
lfoot -9.70422 -0.317617
ltoes 3.63958
